<svg xmlns="http://www.w3.org/2000/svg" viewBox="0 0 512 512">
  <rect width="512" height="512" rx="110" fill="#15803d"/>
  <path d="M205 125c0-29 23-52 51-52s51 23 51 52c0 14-6 27-15 37h33c42 0 76 34 76 76v133c0 38-31 69-69 69H180c-38 0-69-31-69-69V238c0-42 34-76 76-76h33c-9-10-15-23-15-37zm51-15c-9 0-16 7-16 16s7 16 16 16 16-7 16-16-7-16-16-16zm-69 90c-21 0-38 17-38 38v133c0 17 14 31 31 31h152c17 0 31-14 31-31V238c0-21-17-38-38-38H187z" fill="white"/>
  <text x="256" y="330" text-anchor="middle" font-family="Arial,sans-serif" font-size="106" font-weight="700" fill="white">60</text>
</svg>
